<?xml version="1.0" encoding="utf-8"?>
<svg xmlns="http://www.w3.org/2000/svg" xmlns:xlink="http://www.w3.org/1999/xlink" width="600" height="400" viewBox="0 0 2400 1600">
<defs>
  <clipPath id="clip640">
    <rect x="0" y="0" width="2400" height="1600"/>
  </clipPath>
</defs>
<path clip-path="url(#clip640)" d="
M0 1600 L2400 1600 L2400 0 L0 0  Z
  " fill="#ffffff" fill-rule="evenodd" fill-opacity="1"/>
<defs>
  <clipPath id="clip641">
    <rect x="480" y="0" width="1681" height="1600"/>
  </clipPath>
</defs>
<path clip-path="url(#clip640)" d="
M398.979 1379.51 L2352.76 1379.51 L2352.76 47.2441 L398.979 47.2441  Z
  " fill="#ffffff" fill-rule="evenodd" fill-opacity="1"/>
<defs>
  <clipPath id="clip642">
    <rect x="398" y="47" width="1955" height="1333"/>
  </clipPath>
</defs>
<polyline clip-path="url(#clip640)" style="stroke:#000000; stroke-width:4; stroke-opacity:1; fill:none" points="
  398.979,1379.51 2352.76,1379.51 
  "/>
<polyline clip-path="url(#clip640)" style="stroke:#000000; stroke-width:4; stroke-opacity:1; fill:none" points="
  761.472,1379.51 761.472,1363.52 
  "/>
<polyline clip-path="url(#clip640)" style="stroke:#000000; stroke-width:4; stroke-opacity:1; fill:none" points="
  1145.47,1379.51 1145.47,1363.52 
  "/>
<polyline clip-path="url(#clip640)" style="stroke:#000000; stroke-width:4; stroke-opacity:1; fill:none" points="
  1529.47,1379.51 1529.47,1363.52 
  "/>
<polyline clip-path="url(#clip640)" style="stroke:#000000; stroke-width:4; stroke-opacity:1; fill:none" points="
  1913.46,1379.51 1913.46,1363.52 
  "/>
<polyline clip-path="url(#clip640)" style="stroke:#000000; stroke-width:4; stroke-opacity:1; fill:none" points="
  2297.46,1379.51 2297.46,1363.52 
  "/>
<g clip-path="url(#clip640)">
<text style="fill:#000000; fill-opacity:1; font-family:Arial,Helvetica Neue,Helvetica,sans-serif; font-size:71px; text-anchor:middle;" transform="rotate(0, 761.472, 1461.11)" x="761.472" y="1461.11">5</text>
</g>
<g clip-path="url(#clip640)">
<text style="fill:#000000; fill-opacity:1; font-family:Arial,Helvetica Neue,Helvetica,sans-serif; font-size:71px; text-anchor:middle;" transform="rotate(0, 1145.47, 1461.11)" x="1145.47" y="1461.11">10</text>
</g>
<g clip-path="url(#clip640)">
<text style="fill:#000000; fill-opacity:1; font-family:Arial,Helvetica Neue,Helvetica,sans-serif; font-size:71px; text-anchor:middle;" transform="rotate(0, 1529.47, 1461.11)" x="1529.47" y="1461.11">15</text>
</g>
<g clip-path="url(#clip640)">
<text style="fill:#000000; fill-opacity:1; font-family:Arial,Helvetica Neue,Helvetica,sans-serif; font-size:71px; text-anchor:middle;" transform="rotate(0, 1913.46, 1461.11)" x="1913.46" y="1461.11">20</text>
</g>
<g clip-path="url(#clip640)">
<text style="fill:#000000; fill-opacity:1; font-family:Arial,Helvetica Neue,Helvetica,sans-serif; font-size:71px; text-anchor:middle;" transform="rotate(0, 2297.46, 1461.11)" x="2297.46" y="1461.11">25</text>
</g>
<g clip-path="url(#clip640)">
<text style="fill:#000000; fill-opacity:1; font-family:Arial,Helvetica Neue,Helvetica,sans-serif; font-size:107px; text-anchor:middle;" transform="rotate(0, 1375.87, 1576.53)" x="1375.87" y="1576.53">Iteration #</text>
</g>
<polyline clip-path="url(#clip640)" style="stroke:#000000; stroke-width:4; stroke-opacity:1; fill:none" points="
  398.979,1379.51 398.979,47.2441 
  "/>
<polyline clip-path="url(#clip640)" style="stroke:#000000; stroke-width:4; stroke-opacity:1; fill:none" points="
  398.979,1379.51 422.424,1379.51 
  "/>
<polyline clip-path="url(#clip640)" style="stroke:#000000; stroke-width:4; stroke-opacity:1; fill:none" points="
  398.979,1046.44 422.424,1046.44 
  "/>
<polyline clip-path="url(#clip640)" style="stroke:#000000; stroke-width:4; stroke-opacity:1; fill:none" points="
  398.979,713.377 422.424,713.377 
  "/>
<polyline clip-path="url(#clip640)" style="stroke:#000000; stroke-width:4; stroke-opacity:1; fill:none" points="
  398.979,380.311 422.424,380.311 
  "/>
<polyline clip-path="url(#clip640)" style="stroke:#000000; stroke-width:4; stroke-opacity:1; fill:none" points="
  398.979,47.2441 422.424,47.2441 
  "/>
<g clip-path="url(#clip640)">
<text style="fill:#000000; fill-opacity:1; font-family:Arial,Helvetica Neue,Helvetica,sans-serif; font-size:71px; text-anchor:end;" transform="rotate(0, 362.979, 1405.51)" x="362.979" y="1405.51">0.0000</text>
</g>
<g clip-path="url(#clip640)">
<text style="fill:#000000; fill-opacity:1; font-family:Arial,Helvetica Neue,Helvetica,sans-serif; font-size:71px; text-anchor:end;" transform="rotate(0, 362.979, 1072.44)" x="362.979" y="1072.44">0.0001</text>
</g>
<g clip-path="url(#clip640)">
<text style="fill:#000000; fill-opacity:1; font-family:Arial,Helvetica Neue,Helvetica,sans-serif; font-size:71px; text-anchor:end;" transform="rotate(0, 362.979, 739.377)" x="362.979" y="739.377">0.0002</text>
</g>
<g clip-path="url(#clip640)">
<text style="fill:#000000; fill-opacity:1; font-family:Arial,Helvetica Neue,Helvetica,sans-serif; font-size:71px; text-anchor:end;" transform="rotate(0, 362.979, 406.311)" x="362.979" y="406.311">0.0003</text>
</g>
<g clip-path="url(#clip640)">
<text style="fill:#000000; fill-opacity:1; font-family:Arial,Helvetica Neue,Helvetica,sans-serif; font-size:71px; text-anchor:end;" transform="rotate(0, 362.979, 73.2441)" x="362.979" y="73.2441">0.0004</text>
</g>
<g clip-path="url(#clip640)">
<text style="fill:#000000; fill-opacity:1; font-family:Arial,Helvetica Neue,Helvetica,sans-serif; font-size:107px; text-anchor:middle;" transform="rotate(-90, 110.615, 713.377)" x="110.615" y="713.377">Rigidity</text>
</g>
<polyline clip-path="url(#clip642)" style="stroke:#00008b; stroke-width:8; stroke-opacity:1; fill:none" points="
  454.275,918.685 531.074,673.118 607.873,998.599 684.673,1017.42 761.472,1054.33 838.272,1043.28 915.071,1063.63 991.87,993.44 1068.67,929.143 1145.47,948.923 
  1222.27,787.988 1299.07,695.768 1375.87,617.822 1452.67,630.656 1529.47,603.221 1606.27,521.264 1683.07,508.394 1759.86,541.7 1836.66,606.918 1913.46,574.769 
  1990.26,566.445 2067.06,562.279 2143.86,526.013 2220.66,529.539 2297.46,532.605 
  "/>
</svg>
