<?xml version="1.0" encoding="utf-8"?>
<svg xmlns="http://www.w3.org/2000/svg" xmlns:xlink="http://www.w3.org/1999/xlink" width="600" height="400" viewBox="0 0 2400 1600">
<defs>
  <clipPath id="clip030">
    <rect x="0" y="0" width="2400" height="1600"/>
  </clipPath>
</defs>
<path clip-path="url(#clip030)" d="
M0 1600 L2400 1600 L2400 0 L0 0  Z
  " fill="#ffffff" fill-rule="evenodd" fill-opacity="1"/>
<defs>
  <clipPath id="clip031">
    <rect x="480" y="0" width="1681" height="1600"/>
  </clipPath>
</defs>
<path clip-path="url(#clip030)" d="
M398.979 1379.51 L2352.76 1379.51 L2352.76 47.2441 L398.979 47.2441  Z
  " fill="#ffffff" fill-rule="evenodd" fill-opacity="1"/>
<defs>
  <clipPath id="clip032">
    <rect x="398" y="47" width="1955" height="1333"/>
  </clipPath>
</defs>
<polyline clip-path="url(#clip030)" style="stroke:#000000; stroke-width:4; stroke-opacity:1; fill:none" points="
  398.979,1379.51 2352.76,1379.51 
  "/>
<polyline clip-path="url(#clip030)" style="stroke:#000000; stroke-width:4; stroke-opacity:1; fill:none" points="
  700.033,1379.51 700.033,1363.52 
  "/>
<polyline clip-path="url(#clip030)" style="stroke:#000000; stroke-width:4; stroke-opacity:1; fill:none" points="
  1007.23,1379.51 1007.23,1363.52 
  "/>
<polyline clip-path="url(#clip030)" style="stroke:#000000; stroke-width:4; stroke-opacity:1; fill:none" points="
  1314.43,1379.51 1314.43,1363.52 
  "/>
<polyline clip-path="url(#clip030)" style="stroke:#000000; stroke-width:4; stroke-opacity:1; fill:none" points="
  1621.63,1379.51 1621.63,1363.52 
  "/>
<polyline clip-path="url(#clip030)" style="stroke:#000000; stroke-width:4; stroke-opacity:1; fill:none" points="
  1928.82,1379.51 1928.82,1363.52 
  "/>
<polyline clip-path="url(#clip030)" style="stroke:#000000; stroke-width:4; stroke-opacity:1; fill:none" points="
  2236.02,1379.51 2236.02,1363.52 
  "/>
<g clip-path="url(#clip030)">
<text style="fill:#000000; fill-opacity:1; font-family:Arial,Helvetica Neue,Helvetica,sans-serif; font-size:71px; text-anchor:middle;" transform="rotate(0, 700.033, 1461.11)" x="700.033" y="1461.11">5</text>
</g>
<g clip-path="url(#clip030)">
<text style="fill:#000000; fill-opacity:1; font-family:Arial,Helvetica Neue,Helvetica,sans-serif; font-size:71px; text-anchor:middle;" transform="rotate(0, 1007.23, 1461.11)" x="1007.23" y="1461.11">10</text>
</g>
<g clip-path="url(#clip030)">
<text style="fill:#000000; fill-opacity:1; font-family:Arial,Helvetica Neue,Helvetica,sans-serif; font-size:71px; text-anchor:middle;" transform="rotate(0, 1314.43, 1461.11)" x="1314.43" y="1461.11">15</text>
</g>
<g clip-path="url(#clip030)">
<text style="fill:#000000; fill-opacity:1; font-family:Arial,Helvetica Neue,Helvetica,sans-serif; font-size:71px; text-anchor:middle;" transform="rotate(0, 1621.63, 1461.11)" x="1621.63" y="1461.11">20</text>
</g>
<g clip-path="url(#clip030)">
<text style="fill:#000000; fill-opacity:1; font-family:Arial,Helvetica Neue,Helvetica,sans-serif; font-size:71px; text-anchor:middle;" transform="rotate(0, 1928.82, 1461.11)" x="1928.82" y="1461.11">25</text>
</g>
<g clip-path="url(#clip030)">
<text style="fill:#000000; fill-opacity:1; font-family:Arial,Helvetica Neue,Helvetica,sans-serif; font-size:71px; text-anchor:middle;" transform="rotate(0, 2236.02, 1461.11)" x="2236.02" y="1461.11">30</text>
</g>
<g clip-path="url(#clip030)">
<text style="fill:#000000; fill-opacity:1; font-family:Arial,Helvetica Neue,Helvetica,sans-serif; font-size:107px; text-anchor:middle;" transform="rotate(0, 1375.87, 1576.53)" x="1375.87" y="1576.53">Iteration #</text>
</g>
<polyline clip-path="url(#clip030)" style="stroke:#000000; stroke-width:4; stroke-opacity:1; fill:none" points="
  398.979,1379.51 398.979,47.2441 
  "/>
<polyline clip-path="url(#clip030)" style="stroke:#000000; stroke-width:4; stroke-opacity:1; fill:none" points="
  398.979,1379.51 422.424,1379.51 
  "/>
<polyline clip-path="url(#clip030)" style="stroke:#000000; stroke-width:4; stroke-opacity:1; fill:none" points="
  398.979,1113.06 422.424,1113.06 
  "/>
<polyline clip-path="url(#clip030)" style="stroke:#000000; stroke-width:4; stroke-opacity:1; fill:none" points="
  398.979,846.604 422.424,846.604 
  "/>
<polyline clip-path="url(#clip030)" style="stroke:#000000; stroke-width:4; stroke-opacity:1; fill:none" points="
  398.979,580.151 422.424,580.151 
  "/>
<polyline clip-path="url(#clip030)" style="stroke:#000000; stroke-width:4; stroke-opacity:1; fill:none" points="
  398.979,313.697 422.424,313.697 
  "/>
<polyline clip-path="url(#clip030)" style="stroke:#000000; stroke-width:4; stroke-opacity:1; fill:none" points="
  398.979,47.2441 422.424,47.2441 
  "/>
<g clip-path="url(#clip030)">
<text style="fill:#000000; fill-opacity:1; font-family:Arial,Helvetica Neue,Helvetica,sans-serif; font-size:71px; text-anchor:end;" transform="rotate(0, 362.979, 1405.51)" x="362.979" y="1405.51">0.0000</text>
</g>
<g clip-path="url(#clip030)">
<text style="fill:#000000; fill-opacity:1; font-family:Arial,Helvetica Neue,Helvetica,sans-serif; font-size:71px; text-anchor:end;" transform="rotate(0, 362.979, 1139.06)" x="362.979" y="1139.06">0.0002</text>
</g>
<g clip-path="url(#clip030)">
<text style="fill:#000000; fill-opacity:1; font-family:Arial,Helvetica Neue,Helvetica,sans-serif; font-size:71px; text-anchor:end;" transform="rotate(0, 362.979, 872.604)" x="362.979" y="872.604">0.0004</text>
</g>
<g clip-path="url(#clip030)">
<text style="fill:#000000; fill-opacity:1; font-family:Arial,Helvetica Neue,Helvetica,sans-serif; font-size:71px; text-anchor:end;" transform="rotate(0, 362.979, 606.151)" x="362.979" y="606.151">0.0006</text>
</g>
<g clip-path="url(#clip030)">
<text style="fill:#000000; fill-opacity:1; font-family:Arial,Helvetica Neue,Helvetica,sans-serif; font-size:71px; text-anchor:end;" transform="rotate(0, 362.979, 339.697)" x="362.979" y="339.697">0.0008</text>
</g>
<g clip-path="url(#clip030)">
<text style="fill:#000000; fill-opacity:1; font-family:Arial,Helvetica Neue,Helvetica,sans-serif; font-size:71px; text-anchor:end;" transform="rotate(0, 362.979, 73.2441)" x="362.979" y="73.2441">0.0010</text>
</g>
<g clip-path="url(#clip030)">
<text style="fill:#000000; fill-opacity:1; font-family:Arial,Helvetica Neue,Helvetica,sans-serif; font-size:107px; text-anchor:middle;" transform="rotate(-90, 110.615, 713.377)" x="110.615" y="713.377">Rigidity</text>
</g>
<polyline clip-path="url(#clip032)" style="stroke:#dc143c; stroke-width:8; stroke-opacity:1; fill:none" points="
  454.275,1096.93 515.714,1033.81 577.154,1036.87 638.593,1064.93 700.033,1056.67 761.472,1056.42 822.912,1073.55 884.351,1035.7 945.791,1012.14 1007.23,919.158 
  1068.67,934.546 1130.11,844.235 1191.55,821.893 1252.99,736.566 1314.43,707.212 1375.87,662.78 1437.31,615.243 1498.75,627.989 1560.19,514.367 1621.63,522.923 
  1683.07,612.005 1744.5,657.687 1805.94,453.263 1867.38,400.06 1928.82,659.362 1990.26,543.172 2051.7,525.428 2113.14,495.567 2174.58,241.23 2236.02,411.126 
  2297.46,567.261 
  "/>
</svg>
