<?xml version="1.0" encoding="utf-8"?>
<svg xmlns="http://www.w3.org/2000/svg" xmlns:xlink="http://www.w3.org/1999/xlink" width="600" height="400" viewBox="0 0 2400 1600">
<defs>
  <clipPath id="clip830">
    <rect x="0" y="0" width="2400" height="1600"/>
  </clipPath>
</defs>
<path clip-path="url(#clip830)" d="
M0 1600 L2400 1600 L2400 0 L0 0  Z
  " fill="#ffffff" fill-rule="evenodd" fill-opacity="1"/>
<defs>
  <clipPath id="clip831">
    <rect x="480" y="0" width="1681" height="1600"/>
  </clipPath>
</defs>
<path clip-path="url(#clip830)" d="
M278.549 1299.44 L2352.76 1299.44 L2352.76 47.2441 L278.549 47.2441  Z
  " fill="#ffffff" fill-rule="evenodd" fill-opacity="1"/>
<defs>
  <clipPath id="clip832">
    <rect x="278" y="47" width="2075" height="1253"/>
  </clipPath>
</defs>
<polyline clip-path="url(#clip830)" style="stroke:#000000; stroke-width:4; stroke-opacity:1; fill:none" points="
  278.549,1299.44 2352.76,1299.44 
  "/>
<polyline clip-path="url(#clip830)" style="stroke:#000000; stroke-width:4; stroke-opacity:1; fill:none" points="
  537.824,1299.44 537.824,1284.41 
  "/>
<polyline clip-path="url(#clip830)" style="stroke:#000000; stroke-width:4; stroke-opacity:1; fill:none" points="
  797.1,1299.44 797.1,1284.41 
  "/>
<polyline clip-path="url(#clip830)" style="stroke:#000000; stroke-width:4; stroke-opacity:1; fill:none" points="
  1056.38,1299.44 1056.38,1284.41 
  "/>
<polyline clip-path="url(#clip830)" style="stroke:#000000; stroke-width:4; stroke-opacity:1; fill:none" points="
  1315.65,1299.44 1315.65,1284.41 
  "/>
<polyline clip-path="url(#clip830)" style="stroke:#000000; stroke-width:4; stroke-opacity:1; fill:none" points="
  1574.93,1299.44 1574.93,1284.41 
  "/>
<polyline clip-path="url(#clip830)" style="stroke:#000000; stroke-width:4; stroke-opacity:1; fill:none" points="
  1834.2,1299.44 1834.2,1284.41 
  "/>
<polyline clip-path="url(#clip830)" style="stroke:#000000; stroke-width:4; stroke-opacity:1; fill:none" points="
  2093.48,1299.44 2093.48,1284.41 
  "/>
<g clip-path="url(#clip830)">
<text style="fill:#000000; fill-opacity:1; font-family:Arial,Helvetica Neue,Helvetica,sans-serif; font-size:71px; text-anchor:middle;" transform="rotate(0, 537.824, 1381.04)" x="537.824" y="1381.04">200</text>
</g>
<g clip-path="url(#clip830)">
<text style="fill:#000000; fill-opacity:1; font-family:Arial,Helvetica Neue,Helvetica,sans-serif; font-size:71px; text-anchor:middle;" transform="rotate(0, 797.1, 1381.04)" x="797.1" y="1381.04">300</text>
</g>
<g clip-path="url(#clip830)">
<text style="fill:#000000; fill-opacity:1; font-family:Arial,Helvetica Neue,Helvetica,sans-serif; font-size:71px; text-anchor:middle;" transform="rotate(0, 1056.38, 1381.04)" x="1056.38" y="1381.04">400</text>
</g>
<g clip-path="url(#clip830)">
<text style="fill:#000000; fill-opacity:1; font-family:Arial,Helvetica Neue,Helvetica,sans-serif; font-size:71px; text-anchor:middle;" transform="rotate(0, 1315.65, 1381.04)" x="1315.65" y="1381.04">500</text>
</g>
<g clip-path="url(#clip830)">
<text style="fill:#000000; fill-opacity:1; font-family:Arial,Helvetica Neue,Helvetica,sans-serif; font-size:71px; text-anchor:middle;" transform="rotate(0, 1574.93, 1381.04)" x="1574.93" y="1381.04">600</text>
</g>
<g clip-path="url(#clip830)">
<text style="fill:#000000; fill-opacity:1; font-family:Arial,Helvetica Neue,Helvetica,sans-serif; font-size:71px; text-anchor:middle;" transform="rotate(0, 1834.2, 1381.04)" x="1834.2" y="1381.04">700</text>
</g>
<g clip-path="url(#clip830)">
<text style="fill:#000000; fill-opacity:1; font-family:Arial,Helvetica Neue,Helvetica,sans-serif; font-size:71px; text-anchor:middle;" transform="rotate(0, 2093.48, 1381.04)" x="2093.48" y="1381.04">800</text>
</g>
<g clip-path="url(#clip830)">
<text style="fill:#000000; fill-opacity:1; font-family:Arial,Helvetica Neue,Helvetica,sans-serif; font-size:107px; text-anchor:middle;" transform="rotate(0, 1315.65, 1499.93)" x="1315.65" y="1499.93">Volume [A]</text>
</g>
<g clip-path="url(#clip830)">
<text style="fill:#000000; fill-opacity:1; font-family:Arial,Helvetica Neue,Helvetica,sans-serif; font-size:107px; text-anchor:middle;" transform="rotate(0, 1315.65, 1616.57)" x="1315.65" y="1616.57">    </text>
</g>
<polyline clip-path="url(#clip830)" style="stroke:#000000; stroke-width:4; stroke-opacity:1; fill:none" points="
  278.549,1299.44 278.549,47.2441 
  "/>
<polyline clip-path="url(#clip830)" style="stroke:#000000; stroke-width:4; stroke-opacity:1; fill:none" points="
  278.549,1120.55 303.439,1120.55 
  "/>
<polyline clip-path="url(#clip830)" style="stroke:#000000; stroke-width:4; stroke-opacity:1; fill:none" points="
  278.549,762.785 303.439,762.785 
  "/>
<polyline clip-path="url(#clip830)" style="stroke:#000000; stroke-width:4; stroke-opacity:1; fill:none" points="
  278.549,405.014 303.439,405.014 
  "/>
<polyline clip-path="url(#clip830)" style="stroke:#000000; stroke-width:4; stroke-opacity:1; fill:none" points="
  278.549,47.2441 303.439,47.2441 
  "/>
<g clip-path="url(#clip830)">
<text style="fill:#000000; fill-opacity:1; font-family:Arial,Helvetica Neue,Helvetica,sans-serif; font-size:71px; text-anchor:end;" transform="rotate(0, 242.549, 1146.55)" x="242.549" y="1146.55">0.1</text>
</g>
<g clip-path="url(#clip830)">
<text style="fill:#000000; fill-opacity:1; font-family:Arial,Helvetica Neue,Helvetica,sans-serif; font-size:71px; text-anchor:end;" transform="rotate(0, 242.549, 788.785)" x="242.549" y="788.785">0.3</text>
</g>
<g clip-path="url(#clip830)">
<text style="fill:#000000; fill-opacity:1; font-family:Arial,Helvetica Neue,Helvetica,sans-serif; font-size:71px; text-anchor:end;" transform="rotate(0, 242.549, 431.014)" x="242.549" y="431.014">0.5</text>
</g>
<g clip-path="url(#clip830)">
<text style="fill:#000000; fill-opacity:1; font-family:Arial,Helvetica Neue,Helvetica,sans-serif; font-size:71px; text-anchor:end;" transform="rotate(0, 242.549, 73.2441)" x="242.549" y="73.2441">0.7</text>
</g>
<g clip-path="url(#clip830)">
<text style="fill:#000000; fill-opacity:1; font-family:Arial,Helvetica Neue,Helvetica,sans-serif; font-size:107px; text-anchor:middle;" transform="rotate(-90, 110.615, 673.342)" x="110.615" y="673.342">Relative probability</text>
</g>
<path clip-path="url(#clip832)" d="
M304.476 1210 L304.476 1299.44 L511.897 1299.44 L511.897 1210 L304.476 1210 L304.476 1210  Z
  " fill="#deb887" fill-rule="evenodd" fill-opacity="1"/>
<polyline clip-path="url(#clip832)" style="stroke:#000000; stroke-width:4; stroke-opacity:0; fill:none" points="
  304.476,1210 304.476,1299.44 511.897,1299.44 511.897,1210 304.476,1210 
  "/>
<path clip-path="url(#clip832)" d="
M563.752 -86.9198 L563.752 1299.44 L771.173 1299.44 L771.173 -86.9198 L563.752 -86.9198 L563.752 -86.9198  Z
  " fill="#deb887" fill-rule="evenodd" fill-opacity="1"/>
<polyline clip-path="url(#clip832)" style="stroke:#000000; stroke-width:4; stroke-opacity:0; fill:none" points="
  563.752,-86.9198 563.752,1299.44 771.173,1299.44 771.173,-86.9198 563.752,-86.9198 
  "/>
<path clip-path="url(#clip832)" d="
M823.028 986.391 L823.028 1299.44 L1030.45 1299.44 L1030.45 986.391 L823.028 986.391 L823.028 986.391  Z
  " fill="#deb887" fill-rule="evenodd" fill-opacity="1"/>
<polyline clip-path="url(#clip832)" style="stroke:#000000; stroke-width:4; stroke-opacity:0; fill:none" points="
  823.028,986.391 823.028,1299.44 1030.45,1299.44 1030.45,986.391 823.028,986.391 
  "/>
<path clip-path="url(#clip832)" d="
M1082.3 1299.44 L1082.3 1299.44 L1289.72 1299.44 L1289.72 1299.44 L1082.3 1299.44 L1082.3 1299.44  Z
  " fill="#deb887" fill-rule="evenodd" fill-opacity="1"/>
<polyline clip-path="url(#clip832)" style="stroke:#000000; stroke-width:4; stroke-opacity:0; fill:none" points="
  1082.3,1299.44 1082.3,1299.44 1289.72,1299.44 1082.3,1299.44 
  "/>
<path clip-path="url(#clip832)" d="
M1341.58 1299.44 L1341.58 1299.44 L1549 1299.44 L1549 1299.44 L1341.58 1299.44 L1341.58 1299.44  Z
  " fill="#deb887" fill-rule="evenodd" fill-opacity="1"/>
<polyline clip-path="url(#clip832)" style="stroke:#000000; stroke-width:4; stroke-opacity:0; fill:none" points="
  1341.58,1299.44 1341.58,1299.44 1549,1299.44 1341.58,1299.44 
  "/>
<path clip-path="url(#clip832)" d="
M1600.86 1299.44 L1600.86 1299.44 L1808.28 1299.44 L1808.28 1299.44 L1600.86 1299.44 L1600.86 1299.44  Z
  " fill="#deb887" fill-rule="evenodd" fill-opacity="1"/>
<polyline clip-path="url(#clip832)" style="stroke:#000000; stroke-width:4; stroke-opacity:0; fill:none" points="
  1600.86,1299.44 1600.86,1299.44 1808.28,1299.44 1600.86,1299.44 
  "/>
<path clip-path="url(#clip832)" d="
M1860.13 1299.44 L1860.13 1299.44 L2067.55 1299.44 L2067.55 1299.44 L1860.13 1299.44 L1860.13 1299.44  Z
  " fill="#deb887" fill-rule="evenodd" fill-opacity="1"/>
<polyline clip-path="url(#clip832)" style="stroke:#000000; stroke-width:4; stroke-opacity:0; fill:none" points="
  1860.13,1299.44 1860.13,1299.44 2067.55,1299.44 1860.13,1299.44 
  "/>
<path clip-path="url(#clip832)" d="
M2119.41 1299.44 L2119.41 1299.44 L2326.83 1299.44 L2326.83 1299.44 L2119.41 1299.44 L2119.41 1299.44  Z
  " fill="#deb887" fill-rule="evenodd" fill-opacity="1"/>
<polyline clip-path="url(#clip832)" style="stroke:#000000; stroke-width:4; stroke-opacity:0; fill:none" points="
  2119.41,1299.44 2119.41,1299.44 2326.83,1299.44 2119.41,1299.44 
  "/>
</svg>
