<?xml version="1.0" encoding="utf-8"?>
<svg xmlns="http://www.w3.org/2000/svg" xmlns:xlink="http://www.w3.org/1999/xlink" width="600" height="400" viewBox="0 0 2400 1600">
<defs>
  <clipPath id="clip960">
    <rect x="0" y="0" width="2400" height="1600"/>
  </clipPath>
</defs>
<path clip-path="url(#clip960)" d="
M0 1600 L2400 1600 L2400 0 L0 0  Z
  " fill="#ffffff" fill-rule="evenodd" fill-opacity="1"/>
<defs>
  <clipPath id="clip961">
    <rect x="480" y="0" width="1681" height="1600"/>
  </clipPath>
</defs>
<path clip-path="url(#clip960)" d="
M338.764 1379.51 L2352.76 1379.51 L2352.76 47.2441 L338.764 47.2441  Z
  " fill="#ffffff" fill-rule="evenodd" fill-opacity="1"/>
<defs>
  <clipPath id="clip962">
    <rect x="338" y="47" width="2015" height="1333"/>
  </clipPath>
</defs>
<polyline clip-path="url(#clip960)" style="stroke:#000000; stroke-width:4; stroke-opacity:1; fill:none" points="
  338.764,1379.51 2352.76,1379.51 
  "/>
<polyline clip-path="url(#clip960)" style="stroke:#000000; stroke-width:4; stroke-opacity:1; fill:none" points="
  649.096,1379.51 649.096,1363.52 
  "/>
<polyline clip-path="url(#clip960)" style="stroke:#000000; stroke-width:4; stroke-opacity:1; fill:none" points="
  965.761,1379.51 965.761,1363.52 
  "/>
<polyline clip-path="url(#clip960)" style="stroke:#000000; stroke-width:4; stroke-opacity:1; fill:none" points="
  1282.43,1379.51 1282.43,1363.52 
  "/>
<polyline clip-path="url(#clip960)" style="stroke:#000000; stroke-width:4; stroke-opacity:1; fill:none" points="
  1599.09,1379.51 1599.09,1363.52 
  "/>
<polyline clip-path="url(#clip960)" style="stroke:#000000; stroke-width:4; stroke-opacity:1; fill:none" points="
  1915.76,1379.51 1915.76,1363.52 
  "/>
<polyline clip-path="url(#clip960)" style="stroke:#000000; stroke-width:4; stroke-opacity:1; fill:none" points="
  2232.42,1379.51 2232.42,1363.52 
  "/>
<g clip-path="url(#clip960)">
<text style="fill:#000000; fill-opacity:1; font-family:Arial,Helvetica Neue,Helvetica,sans-serif; font-size:71px; text-anchor:middle;" transform="rotate(0, 649.096, 1461.11)" x="649.096" y="1461.11">5</text>
</g>
<g clip-path="url(#clip960)">
<text style="fill:#000000; fill-opacity:1; font-family:Arial,Helvetica Neue,Helvetica,sans-serif; font-size:71px; text-anchor:middle;" transform="rotate(0, 965.761, 1461.11)" x="965.761" y="1461.11">10</text>
</g>
<g clip-path="url(#clip960)">
<text style="fill:#000000; fill-opacity:1; font-family:Arial,Helvetica Neue,Helvetica,sans-serif; font-size:71px; text-anchor:middle;" transform="rotate(0, 1282.43, 1461.11)" x="1282.43" y="1461.11">15</text>
</g>
<g clip-path="url(#clip960)">
<text style="fill:#000000; fill-opacity:1; font-family:Arial,Helvetica Neue,Helvetica,sans-serif; font-size:71px; text-anchor:middle;" transform="rotate(0, 1599.09, 1461.11)" x="1599.09" y="1461.11">20</text>
</g>
<g clip-path="url(#clip960)">
<text style="fill:#000000; fill-opacity:1; font-family:Arial,Helvetica Neue,Helvetica,sans-serif; font-size:71px; text-anchor:middle;" transform="rotate(0, 1915.76, 1461.11)" x="1915.76" y="1461.11">25</text>
</g>
<g clip-path="url(#clip960)">
<text style="fill:#000000; fill-opacity:1; font-family:Arial,Helvetica Neue,Helvetica,sans-serif; font-size:71px; text-anchor:middle;" transform="rotate(0, 2232.42, 1461.11)" x="2232.42" y="1461.11">30</text>
</g>
<g clip-path="url(#clip960)">
<text style="fill:#000000; fill-opacity:1; font-family:Arial,Helvetica Neue,Helvetica,sans-serif; font-size:107px; text-anchor:middle;" transform="rotate(0, 1345.76, 1576.53)" x="1345.76" y="1576.53">Iteration #</text>
</g>
<polyline clip-path="url(#clip960)" style="stroke:#000000; stroke-width:4; stroke-opacity:1; fill:none" points="
  338.764,1379.51 338.764,47.2441 
  "/>
<polyline clip-path="url(#clip960)" style="stroke:#000000; stroke-width:4; stroke-opacity:1; fill:none" points="
  338.764,1379.51 362.932,1379.51 
  "/>
<polyline clip-path="url(#clip960)" style="stroke:#000000; stroke-width:4; stroke-opacity:1; fill:none" points="
  338.764,1046.44 362.932,1046.44 
  "/>
<polyline clip-path="url(#clip960)" style="stroke:#000000; stroke-width:4; stroke-opacity:1; fill:none" points="
  338.764,713.377 362.932,713.377 
  "/>
<polyline clip-path="url(#clip960)" style="stroke:#000000; stroke-width:4; stroke-opacity:1; fill:none" points="
  338.764,380.311 362.932,380.311 
  "/>
<polyline clip-path="url(#clip960)" style="stroke:#000000; stroke-width:4; stroke-opacity:1; fill:none" points="
  338.764,47.2441 362.932,47.2441 
  "/>
<g clip-path="url(#clip960)">
<text style="fill:#000000; fill-opacity:1; font-family:Arial,Helvetica Neue,Helvetica,sans-serif; font-size:71px; text-anchor:end;" transform="rotate(0, 302.764, 1405.51)" x="302.764" y="1405.51">0</text>
</g>
<g clip-path="url(#clip960)">
<text style="fill:#000000; fill-opacity:1; font-family:Arial,Helvetica Neue,Helvetica,sans-serif; font-size:71px; text-anchor:end;" transform="rotate(0, 302.764, 1072.44)" x="302.764" y="1072.44">1000</text>
</g>
<g clip-path="url(#clip960)">
<text style="fill:#000000; fill-opacity:1; font-family:Arial,Helvetica Neue,Helvetica,sans-serif; font-size:71px; text-anchor:end;" transform="rotate(0, 302.764, 739.377)" x="302.764" y="739.377">2000</text>
</g>
<g clip-path="url(#clip960)">
<text style="fill:#000000; fill-opacity:1; font-family:Arial,Helvetica Neue,Helvetica,sans-serif; font-size:71px; text-anchor:end;" transform="rotate(0, 302.764, 406.311)" x="302.764" y="406.311">3000</text>
</g>
<g clip-path="url(#clip960)">
<text style="fill:#000000; fill-opacity:1; font-family:Arial,Helvetica Neue,Helvetica,sans-serif; font-size:71px; text-anchor:end;" transform="rotate(0, 302.764, 73.2441)" x="302.764" y="73.2441">4000</text>
</g>
<g clip-path="url(#clip960)">
<text style="fill:#000000; fill-opacity:1; font-family:Arial,Helvetica Neue,Helvetica,sans-serif; font-size:107px; text-anchor:middle;" transform="rotate(-90, 110.615, 713.377)" x="110.615" y="713.377">Volume [A]</text>
</g>
<polyline clip-path="url(#clip962)" style="stroke:#dc143c; stroke-width:8; stroke-opacity:1; fill:none" points="
  395.764,366.035 459.097,482.023 522.43,492.278 585.763,601.234 649.096,677.976 712.429,691.628 775.762,789.027 839.095,813.284 902.428,877.722 965.761,955.51 
  1029.09,984.85 1092.43,1028.07 1155.76,1032.42 1219.09,1029.43 1282.43,1036.25 1345.76,1054.35 1409.09,1059.87 1472.43,1044.75 1535.76,1035.32 1599.09,1048.17 
  1662.43,1080.14 1725.76,1046.03 1789.09,1050.06 1852.42,1049.08 1915.76,1042.53 1979.09,1037.09 2042.42,1064.41 2105.76,1049.88 2169.09,1074.65 2232.42,1049.03 
  2295.76,1048.84 
  "/>
</svg>
