<?xml version="1.0" encoding="utf-8"?>
<svg xmlns="http://www.w3.org/2000/svg" xmlns:xlink="http://www.w3.org/1999/xlink" width="600" height="400" viewBox="0 0 2400 1600">
<defs>
  <clipPath id="clip800">
    <rect x="0" y="0" width="2400" height="1600"/>
  </clipPath>
</defs>
<path clip-path="url(#clip800)" d="
M0 1600 L2400 1600 L2400 0 L0 0  Z
  " fill="#ffffff" fill-rule="evenodd" fill-opacity="1"/>
<defs>
  <clipPath id="clip801">
    <rect x="480" y="0" width="1681" height="1600"/>
  </clipPath>
</defs>
<path clip-path="url(#clip800)" d="
M338.764 1379.51 L2352.76 1379.51 L2352.76 47.2441 L338.764 47.2441  Z
  " fill="#ffffff" fill-rule="evenodd" fill-opacity="1"/>
<defs>
  <clipPath id="clip802">
    <rect x="338" y="47" width="2015" height="1333"/>
  </clipPath>
</defs>
<polyline clip-path="url(#clip800)" style="stroke:#000000; stroke-width:4; stroke-opacity:1; fill:none" points="
  338.764,1379.51 2352.76,1379.51 
  "/>
<polyline clip-path="url(#clip800)" style="stroke:#000000; stroke-width:4; stroke-opacity:1; fill:none" points="
  712.429,1379.51 712.429,1363.52 
  "/>
<polyline clip-path="url(#clip800)" style="stroke:#000000; stroke-width:4; stroke-opacity:1; fill:none" points="
  1108.26,1379.51 1108.26,1363.52 
  "/>
<polyline clip-path="url(#clip800)" style="stroke:#000000; stroke-width:4; stroke-opacity:1; fill:none" points="
  1504.09,1379.51 1504.09,1363.52 
  "/>
<polyline clip-path="url(#clip800)" style="stroke:#000000; stroke-width:4; stroke-opacity:1; fill:none" points="
  1899.92,1379.51 1899.92,1363.52 
  "/>
<polyline clip-path="url(#clip800)" style="stroke:#000000; stroke-width:4; stroke-opacity:1; fill:none" points="
  2295.76,1379.51 2295.76,1363.52 
  "/>
<g clip-path="url(#clip800)">
<text style="fill:#000000; fill-opacity:1; font-family:Arial,Helvetica Neue,Helvetica,sans-serif; font-size:71px; text-anchor:middle;" transform="rotate(0, 712.429, 1461.11)" x="712.429" y="1461.11">5</text>
</g>
<g clip-path="url(#clip800)">
<text style="fill:#000000; fill-opacity:1; font-family:Arial,Helvetica Neue,Helvetica,sans-serif; font-size:71px; text-anchor:middle;" transform="rotate(0, 1108.26, 1461.11)" x="1108.26" y="1461.11">10</text>
</g>
<g clip-path="url(#clip800)">
<text style="fill:#000000; fill-opacity:1; font-family:Arial,Helvetica Neue,Helvetica,sans-serif; font-size:71px; text-anchor:middle;" transform="rotate(0, 1504.09, 1461.11)" x="1504.09" y="1461.11">15</text>
</g>
<g clip-path="url(#clip800)">
<text style="fill:#000000; fill-opacity:1; font-family:Arial,Helvetica Neue,Helvetica,sans-serif; font-size:71px; text-anchor:middle;" transform="rotate(0, 1899.92, 1461.11)" x="1899.92" y="1461.11">20</text>
</g>
<g clip-path="url(#clip800)">
<text style="fill:#000000; fill-opacity:1; font-family:Arial,Helvetica Neue,Helvetica,sans-serif; font-size:71px; text-anchor:middle;" transform="rotate(0, 2295.76, 1461.11)" x="2295.76" y="1461.11">25</text>
</g>
<g clip-path="url(#clip800)">
<text style="fill:#000000; fill-opacity:1; font-family:Arial,Helvetica Neue,Helvetica,sans-serif; font-size:107px; text-anchor:middle;" transform="rotate(0, 1345.76, 1576.53)" x="1345.76" y="1576.53">Iteration #</text>
</g>
<polyline clip-path="url(#clip800)" style="stroke:#000000; stroke-width:4; stroke-opacity:1; fill:none" points="
  338.764,1379.51 338.764,47.2441 
  "/>
<polyline clip-path="url(#clip800)" style="stroke:#000000; stroke-width:4; stroke-opacity:1; fill:none" points="
  338.764,1379.51 362.932,1379.51 
  "/>
<polyline clip-path="url(#clip800)" style="stroke:#000000; stroke-width:4; stroke-opacity:1; fill:none" points="
  338.764,1113.06 362.932,1113.06 
  "/>
<polyline clip-path="url(#clip800)" style="stroke:#000000; stroke-width:4; stroke-opacity:1; fill:none" points="
  338.764,846.604 362.932,846.604 
  "/>
<polyline clip-path="url(#clip800)" style="stroke:#000000; stroke-width:4; stroke-opacity:1; fill:none" points="
  338.764,580.151 362.932,580.151 
  "/>
<polyline clip-path="url(#clip800)" style="stroke:#000000; stroke-width:4; stroke-opacity:1; fill:none" points="
  338.764,313.697 362.932,313.697 
  "/>
<polyline clip-path="url(#clip800)" style="stroke:#000000; stroke-width:4; stroke-opacity:1; fill:none" points="
  338.764,47.2441 362.932,47.2441 
  "/>
<g clip-path="url(#clip800)">
<text style="fill:#000000; fill-opacity:1; font-family:Arial,Helvetica Neue,Helvetica,sans-serif; font-size:71px; text-anchor:end;" transform="rotate(0, 302.764, 1405.51)" x="302.764" y="1405.51">0</text>
</g>
<g clip-path="url(#clip800)">
<text style="fill:#000000; fill-opacity:1; font-family:Arial,Helvetica Neue,Helvetica,sans-serif; font-size:71px; text-anchor:end;" transform="rotate(0, 302.764, 1139.06)" x="302.764" y="1139.06">200</text>
</g>
<g clip-path="url(#clip800)">
<text style="fill:#000000; fill-opacity:1; font-family:Arial,Helvetica Neue,Helvetica,sans-serif; font-size:71px; text-anchor:end;" transform="rotate(0, 302.764, 872.604)" x="302.764" y="872.604">400</text>
</g>
<g clip-path="url(#clip800)">
<text style="fill:#000000; fill-opacity:1; font-family:Arial,Helvetica Neue,Helvetica,sans-serif; font-size:71px; text-anchor:end;" transform="rotate(0, 302.764, 606.151)" x="302.764" y="606.151">600</text>
</g>
<g clip-path="url(#clip800)">
<text style="fill:#000000; fill-opacity:1; font-family:Arial,Helvetica Neue,Helvetica,sans-serif; font-size:71px; text-anchor:end;" transform="rotate(0, 302.764, 339.697)" x="302.764" y="339.697">800</text>
</g>
<g clip-path="url(#clip800)">
<text style="fill:#000000; fill-opacity:1; font-family:Arial,Helvetica Neue,Helvetica,sans-serif; font-size:71px; text-anchor:end;" transform="rotate(0, 302.764, 73.2441)" x="302.764" y="73.2441">1000</text>
</g>
<g clip-path="url(#clip800)">
<text style="fill:#000000; fill-opacity:1; font-family:Arial,Helvetica Neue,Helvetica,sans-serif; font-size:107px; text-anchor:middle;" transform="rotate(-90, 110.615, 713.377)" x="110.615" y="713.377">Volume [A]</text>
</g>
<polyline clip-path="url(#clip802)" style="stroke:#00008b; stroke-width:8; stroke-opacity:1; fill:none" points="
  395.764,402.999 474.93,301.993 554.096,439.062 633.263,534.666 712.429,607.458 791.595,773.552 870.762,835.188 949.928,859.703 1029.09,885.895 1108.26,850.064 
  1187.43,896.877 1266.59,970.085 1345.76,993.645 1424.93,1005.3 1504.09,970.9 1583.26,1040.48 1662.43,1051.54 1741.59,1067.17 1820.76,1048.95 1899.92,1045.49 
  1979.09,1053.72 2058.26,1048.96 2137.42,1069.03 2216.59,1082.11 2295.76,1085.18 
  "/>
</svg>
